<svg width="48" height="54" viewBox="0 0 48 54" fill="none" xmlns="http://www.w3.org/2000/svg">
<path d="M35.6666 17V12.0833C35.6666 10.5512 35.3649 9.03415 34.7786 7.61868C34.1922 6.20322 33.3329 4.91709 32.2495 3.83374C31.1662 2.75039 29.8801 1.89103 28.4646 1.30473C27.0491 0.718423 25.532 0.416656 24 0.416656C22.4679 0.416656 20.9508 0.718423 19.5353 1.30473C18.1199 1.89103 16.8337 2.75039 15.7504 3.83374C14.667 4.91709 13.8077 6.20322 13.2214 7.61868C12.6351 9.03415 12.3333 10.5512 12.3333 12.0833V23.75C12.3333 24.192 12.5089 24.6159 12.8214 24.9285C13.134 25.2411 13.5579 25.4167 14 25.4167C14.442 25.4167 14.8659 25.2411 15.1785 24.9285C15.491 24.6159 15.6666 24.192 15.6666 23.75V20.3333H32.3333V17H15.6666V12.0833C15.6666 9.87319 16.5446 7.75357 18.1074 6.19077C19.6702 4.62796 21.7898 3.74999 24 3.74999C26.2101 3.74999 28.3297 4.62796 29.8925 6.19077C31.4553 7.75357 32.3333 9.87319 32.3333 12.0833V23.6667C32.3333 24.1087 32.5089 24.5326 32.8214 24.8452C33.134 25.1577 33.5579 25.3333 34 25.3333C34.442 25.3333 34.8659 25.1577 35.1785 24.8452C35.491 24.5326 35.6666 24.1087 35.6666 23.6667V20.3333H44V50.3333H3.99996V20.3333H12.3333V17H0.666626V50.4833C0.666626 51.3276 0.666626 53.6667 0.666626 53.6667C0.666626 53.6667 3.00569 53.6667 3.84996 53.6667C4.69423 53.6667 44.15 53.6667 44.15 53.6667C44.9942 53.6667 47.3333 53.6667 47.3333 53.6667C47.3333 53.6667 47.3333 51.3276 47.3333 50.4833V17H35.6666Z" fill="#E1E1E1"/>
</svg>
