<svg width="88" height="20" viewBox="0 0 88 20" fill="none" xmlns="http://www.w3.org/2000/svg">
<path d="M3.72168 8.5H4.50918C4.82585 8.5 5.08835 8.45833 5.29668 8.375C5.50501 8.28333 5.68418 8.14167 5.83418 7.95L10.8217 1.6375C11.03 1.37083 11.2467 1.1875 11.4717 1.0875C11.705 0.979165 11.9967 0.924999 12.3467 0.924999H15.2467L9.15918 8.4375C8.80085 8.89583 8.43001 9.22083 8.04668 9.4125C8.32168 9.5125 8.56751 9.65417 8.78418 9.8375C9.00918 10.0125 9.22168 10.2458 9.42168 10.5375L15.6967 19H12.7342C12.3342 19 12.0342 18.9458 11.8342 18.8375C11.6425 18.7208 11.48 18.5542 11.3467 18.3375L6.23418 11.6625C6.07585 11.4375 5.89251 11.2792 5.68418 11.1875C5.47585 11.0958 5.17585 11.05 4.78418 11.05H3.72168V19H0.35918V0.924999H3.72168V8.5ZM24.7729 16.2875C25.4229 16.2875 26.002 16.1792 26.5104 15.9625C27.027 15.7458 27.4604 15.4417 27.8104 15.05C28.1604 14.6583 28.427 14.1833 28.6104 13.625C28.802 13.0667 28.8979 12.4417 28.8979 11.75V0.924999H32.2604V11.75C32.2604 12.825 32.0854 13.8208 31.7354 14.7375C31.3937 15.6458 30.8979 16.4333 30.2479 17.1C29.6062 17.7583 28.8229 18.275 27.8979 18.65C26.9729 19.0167 25.9312 19.2 24.7729 19.2C23.6062 19.2 22.5604 19.0167 21.6354 18.65C20.7104 18.275 19.9229 17.7583 19.2729 17.1C18.6312 16.4333 18.1354 15.6458 17.7854 14.7375C17.4437 13.8208 17.2729 12.825 17.2729 11.75V0.924999H20.6354V11.7375C20.6354 12.4292 20.727 13.0542 20.9104 13.6125C21.102 14.1708 21.3729 14.65 21.7229 15.05C22.0812 15.4417 22.5145 15.7458 23.0229 15.9625C23.5395 16.1792 24.1229 16.2875 24.7729 16.2875ZM53.29 9.9625C53.29 11.2875 53.0692 12.5167 52.6275 13.65C52.1942 14.775 51.5775 15.75 50.7775 16.575C49.9775 17.4 49.015 18.0458 47.89 18.5125C46.765 18.9708 45.515 19.2 44.14 19.2C42.7734 19.2 41.5275 18.9708 40.4025 18.5125C39.2775 18.0458 38.3109 17.4 37.5025 16.575C36.7025 15.75 36.0817 14.775 35.64 13.65C35.1984 12.5167 34.9775 11.2875 34.9775 9.9625C34.9775 8.6375 35.1984 7.4125 35.64 6.2875C36.0817 5.15417 36.7025 4.175 37.5025 3.35C38.3109 2.525 39.2775 1.88333 40.4025 1.425C41.5275 0.958333 42.7734 0.725 44.14 0.725C45.0567 0.725 45.9192 0.833333 46.7275 1.05C47.5359 1.25833 48.2775 1.55833 48.9525 1.95C49.6275 2.33333 50.2317 2.80417 50.765 3.3625C51.3067 3.9125 51.765 4.52917 52.14 5.2125C52.515 5.89583 52.7984 6.6375 52.99 7.4375C53.19 8.2375 53.29 9.07917 53.29 9.9625ZM49.8525 9.9625C49.8525 8.97083 49.7192 8.08333 49.4525 7.3C49.1859 6.50833 48.8067 5.8375 48.315 5.2875C47.8234 4.7375 47.2234 4.31667 46.515 4.025C45.815 3.73333 45.0234 3.5875 44.14 3.5875C43.2567 3.5875 42.4609 3.73333 41.7525 4.025C41.0525 4.31667 40.4525 4.7375 39.9525 5.2875C39.4609 5.8375 39.0817 6.50833 38.815 7.3C38.5484 8.08333 38.415 8.97083 38.415 9.9625C38.415 10.9542 38.5484 11.8458 38.815 12.6375C39.0817 13.4208 39.4609 14.0875 39.9525 14.6375C40.4525 15.1792 41.0525 15.5958 41.7525 15.8875C42.4609 16.1792 43.2567 16.325 44.14 16.325C45.0234 16.325 45.815 16.1792 46.515 15.8875C47.2234 15.5958 47.8234 15.1792 48.315 14.6375C48.8067 14.0875 49.1859 13.4208 49.4525 12.6375C49.7192 11.8458 49.8525 10.9542 49.8525 9.9625ZM61.7055 9.525C62.3388 9.525 62.8888 9.44583 63.3555 9.2875C63.8305 9.12917 64.218 8.9125 64.518 8.6375C64.8263 8.35417 65.0555 8.02083 65.2055 7.6375C65.3555 7.25417 65.4305 6.83333 65.4305 6.375C65.4305 5.45833 65.1263 4.75417 64.518 4.2625C63.918 3.77083 62.9971 3.525 61.7555 3.525H59.6055V9.525H61.7055ZM70.3555 19H67.318C66.743 19 66.3263 18.775 66.068 18.325L62.268 12.5375C62.1263 12.3208 61.968 12.1667 61.793 12.075C61.6263 11.9833 61.3763 11.9375 61.043 11.9375H59.6055V19H56.243V0.924999H61.7555C62.9805 0.924999 64.0305 1.05417 64.9055 1.3125C65.7888 1.5625 66.5096 1.91667 67.068 2.375C67.6346 2.83333 68.0513 3.38333 68.318 4.025C68.5846 4.65833 68.718 5.35833 68.718 6.125C68.718 6.73333 68.6263 7.30833 68.443 7.85C68.268 8.39167 68.0096 8.88333 67.668 9.325C67.3346 9.76667 66.918 10.1542 66.418 10.4875C65.9263 10.8208 65.3638 11.0833 64.7305 11.275C64.9471 11.4 65.1471 11.55 65.3305 11.725C65.5138 11.8917 65.6805 12.0917 65.8305 12.325L70.3555 19ZM81.8574 12.175L79.6574 6.1625C79.5491 5.89583 79.4366 5.57917 79.3199 5.2125C79.2033 4.84583 79.0866 4.45 78.9699 4.025C78.8616 4.45 78.7491 4.85 78.6324 5.225C78.5158 5.59167 78.4033 5.9125 78.2949 6.1875L76.1074 12.175H81.8574ZM87.7949 19H85.1949C84.9033 19 84.6658 18.9292 84.4824 18.7875C84.2991 18.6375 84.1616 18.4542 84.0699 18.2375L82.7199 14.55H75.2324L73.8824 18.2375C73.8158 18.4292 73.6866 18.6042 73.4949 18.7625C73.3033 18.9208 73.0658 19 72.7824 19H70.1574L77.2699 0.924999H80.6949L87.7949 19Z" fill="#222222"/>
</svg>
