<svg width="16" height="19" viewBox="0 0 16 19" fill="none" xmlns="http://www.w3.org/2000/svg">
<path d="M3.80566 8.5H4.59316C4.90983 8.5 5.17233 8.45833 5.38066 8.375C5.589 8.28333 5.76816 8.14167 5.91816 7.95L10.9057 1.6375C11.114 1.37083 11.3307 1.1875 11.5557 1.0875C11.789 0.979165 12.0807 0.924999 12.4307 0.924999H15.3307L9.24316 8.4375C8.88483 8.89583 8.514 9.22083 8.13066 9.4125C8.40566 9.5125 8.6515 9.65417 8.86816 9.8375C9.09316 10.0125 9.30566 10.2458 9.50566 10.5375L15.7807 19H12.8182C12.4182 19 12.1182 18.9458 11.9182 18.8375C11.7265 18.7208 11.564 18.5542 11.4307 18.3375L6.31816 11.6625C6.15983 11.4375 5.9765 11.2792 5.76816 11.1875C5.55983 11.0958 5.25983 11.05 4.86816 11.05H3.80566V19H0.443164V0.924999H3.80566V8.5Z" fill="#222222"/>
</svg>
